<svg xmlns="http://www.w3.org/2000/svg" width="24" height="24" viewBox="0 0 640 640">
    <path class="pr-icon-duotone-secondary" d="M192 128L192 288L288 288L288 128L192 128zM192 352L192 512L288 512L288 352L192 352zM352 128L352 288L448 288L448 128L352 128zM352 352L352 512L448 512L448 352L352 352z"/>
    <path class="pr-icon-duotone-primary" d="M512 512L544 512L544 576L96 576L96 512L128 512L128 64L512 64L512 512zM448 288L448 128L352 128L352 288L448 288zM352 352L352 512L448 512L448 352L352 352zM288 288L288 128L192 128L192 288L288 288zM192 352L192 512L288 512L288 352L192 352z"/>
</svg>