<svg xmlns="http://www.w3.org/2000/svg" width="24" height="24" viewBox="0 0 640 640">
    <path class="pr-icon-duotone-secondary" d="M64 544C64 561.7 78.3 576 96 576L544 576C561.7 576 576 561.7 576 544C576 526.3 561.7 512 544 512L251.8 512L340.6 334.3L342.2 331.1L285 302.5L283.4 305.7L180.2 512L96 512C78.3 512 64 526.3 64 544z"/>
    <path class="pr-icon-duotone-primary" d="M520.4 420.2C536.2 428.1 555.6 421.7 561.5 405.1C570.9 378.5 576 349.8 576 320C576 178.6 461.4 64 320 64C231.2 64 153 109.2 107.1 177.8C97.3 192.5 103.8 211.9 119.6 219.8L520.4 420.2z"/>
</svg>